<?xml version="1.0" encoding="UTF-8"?>
<svg width="576px" height="920px" viewBox="0 0 576 920" version="1.1" xmlns="http://www.w3.org/2000/svg" xmlns:xlink="http://www.w3.org/1999/xlink">
    <!-- Generator: Sketch 48.2 (47327) - http://www.bohemiancoding.com/sketch -->
    <title>Group</title>
    <desc>Created with Sketch.</desc>
    <defs></defs>
    <g id="Main-Window" stroke="none" stroke-width="1" fill="none" fill-rule="evenodd">
        <g id="Group" fill="#5C5C5C">
            <path d="M540.858866,430.088794 C536.906386,432.027218 505.110886,443.250931 300.588048,443.250931 C73.8594619,443.250931 40.2035017,431.732067 36.2270679,429.857459 C35.8996909,429.602194 35.5483594,429.362882 35.1970279,429.163456 C33.7517779,428.349796 0,409.01342 0,363.02571 C0,316.056823 28.7373193,306.787487 36.3707945,305.160168 C39.1894312,305.989782 42.008068,306.580084 44.2997075,306.659854 C50.0647379,307.337904 104.050016,313.121267 288.155704,313.121267 C472.429072,313.121267 527.077089,307.329927 532.818165,306.659854 C534.878246,306.588061 537.505247,306.061575 540.260005,305.327686 C548.971429,307.40172 576,317.500669 576,363.02571 C576,405.527448 548.300706,425.238746 542.431873,429.035823 C541.872936,429.346928 541.329969,429.697918 540.858866,430.088794 Z M24.0023289,232.090364 C13.174931,271.776202 28.4897903,284.659142 38.9898111,288.623738 C39.197416,288.679577 39.3970362,288.88698 39.5966564,288.958774 C42.3354451,289.955906 44.3955252,290.267011 44.898568,290.267011 C45.2339299,290.267011 45.6092158,290.330827 45.9365929,290.370712 C46.4396357,290.434529 98.2929703,296.768309 288.163689,296.768309 C478.673191,296.768309 530.718161,290.450483 531.229189,290.386666 C531.564551,290.346781 531.907897,290.330827 532.251244,290.330827 C532.570636,290.330827 533.67254,290.203194 535.253531,289.83625 C536.299541,289.229994 537.433384,288.831141 538.726922,288.735416 C549.13911,284.579372 563.791231,269.327247 553.147483,230.263619 C540.443656,183.629767 510.73219,174.990619 507.402526,174.990619 L72.2864549,174.990619 C71.7594577,174.990619 37.2411384,183.701561 24.0023289,232.090364 Z M32.3224975,445.460575 C26.972677,450.18299 15.3148592,465.929693 28.0186867,507.530023 C40.4590155,548.524098 61.2754065,555.886918 61.4750267,555.958712 C61.9780695,556.12623 62.6088692,556.389473 63.071988,556.652715 C63.3514563,556.796302 104.608952,577.40103 288.570914,577.40103 C472.820328,577.40103 515.507105,556.732486 515.930299,556.533059 C516.377448,556.293748 516.94437,556.078367 517.423458,555.926803 C517.503306,555.894895 538.311712,548.524098 550.752041,507.553955 C563.751307,464.964469 551.263069,449.496964 546.025036,445.133516 C515.427256,456.955508 398.857064,459.595913 300.596033,459.595913 C193.264261,459.595913 65.8267463,457.011347 32.3224975,445.460575 Z M66.4815005,145.834491 C64.517238,151.920982 66.1461386,156.55565 67.2959508,158.781248 C68.7491856,161.581193 70.6176303,162.985154 71.7754273,163.360076 L508.935609,163.471755 C509.510515,163.471755 511.203294,162.729889 512.864134,160.440475 C513.934098,158.956743 517.223838,153.540324 514.676685,145.874376 C496.367523,89.9153498 454.638923,74.0170834 446.462481,71.3607248 C446.175028,71.249046 437.759042,71.2889313 437.551437,71.2889313 L143.72652,71.2889313 C143.399143,71.2889313 134.807491,71.3367936 134.312433,71.4963347 C126.16793,74.1686474 84.7667078,90.082868 66.4815005,145.834491 Z M76.3347519,631.333885 C109.359912,666.15372 142.041726,689 289.393349,689 C436.705047,689 469.4188,666.161698 502.515824,631.333885 C526.590016,605.90304 520.769092,583.663016 516.177828,573.899104 C497.581214,580.089297 439.491745,593.746011 288.578898,593.746011 C138.656168,593.746011 81.2374232,580.240861 62.6567781,573.970897 C58.1453623,583.862443 52.500104,606.214145 76.3347519,631.333885 Z M436.665123,30.1512695 C420.607677,15.7367349 371.509101,3.10108308 350.117804,1.13872807 C330.491149,-0.656108834 253.709248,-0.0578298662 230.249886,1.07491165 C207.589004,2.23956137 159.943663,15.9441383 144.061882,30.1991318 C131.821174,41.1835336 133.62574,47.3577726 135.909395,55.3348255 L444.777687,55.3348255 C447.061342,47.3577726 448.945756,41.1596025 436.665123,30.1512695 Z M537.57711,289.190108 C537.944411,289.054499 538.335667,288.88698 538.718938,288.743393 C537.433384,288.831141 536.291556,289.237971 535.245547,289.844227 C535.93224,289.668732 536.690797,289.469305 537.57711,289.190108 Z" id="Shape" fill-rule="nonzero"></path>
            <path d="M183.835938,833.835938 C185.757822,833.835938 187.105465,834.187496 187.878906,834.890625 C188.652348,835.593754 189.039062,836.765617 189.039062,838.40625 L189.039062,914.132812 C189.039062,915.773446 188.652348,916.945309 187.878906,917.648438 C187.105465,918.351566 185.757822,918.703125 183.835938,918.703125 L183.695312,918.703125 C181.773428,918.703125 180.425785,918.351566 179.652344,917.648438 C178.878902,916.945309 178.492188,915.773446 178.492188,914.132812 L178.492188,880.03125 L137.851562,880.03125 L137.851562,914.132812 C137.851562,915.773446 137.464848,916.945309 136.691406,917.648438 C135.917965,918.351566 134.570322,918.703125 132.648438,918.703125 L132.507812,918.703125 C130.585928,918.703125 129.238285,918.351566 128.464844,917.648438 C127.691402,916.945309 127.304688,915.773446 127.304688,914.132812 L127.304688,838.40625 C127.304688,836.765617 127.691402,835.593754 128.464844,834.890625 C129.238285,834.187496 130.585928,833.835938 132.507812,833.835938 L132.648438,833.835938 C134.570322,833.835938 135.917965,834.187496 136.691406,834.890625 C137.464848,835.593754 137.851562,836.765617 137.851562,838.40625 L137.851562,869.90625 L178.492188,869.90625 L178.492188,838.40625 C178.492188,836.765617 178.878902,835.593754 179.652344,834.890625 C180.425785,834.187496 181.773428,833.835938 183.695312,833.835938 L183.835938,833.835938 Z M247.046875,853.03125 C248.640633,853.03125 249.77734,853.394528 250.457031,854.121094 C251.136722,854.84766 251.476562,856.078116 251.476562,857.8125 L251.476562,907.875 L274.046875,907.875 C275.640633,907.875 276.77734,908.261715 277.457031,909.035156 C278.136722,909.808598 278.476562,911.109366 278.476562,912.9375 C278.476562,914.765634 278.136722,916.066402 277.457031,916.839844 C276.77734,917.613285 275.640633,918 274.046875,918 L218.921875,918 C217.328117,918 216.19141,917.613285 215.511719,916.839844 C214.832028,916.066402 214.492188,914.765634 214.492188,912.9375 C214.492188,911.109366 214.832028,909.808598 215.511719,909.035156 C216.19141,908.261715 217.328117,907.875 218.921875,907.875 L240.929688,907.875 L240.929688,863.15625 L223.140625,863.15625 C221.546867,863.15625 220.41016,862.769535 219.730469,861.996094 C219.050778,861.222652 218.710938,859.921884 218.710938,858.09375 C218.710938,856.265616 219.050778,854.964848 219.730469,854.191406 C220.41016,853.417965 221.546867,853.03125 223.140625,853.03125 L247.046875,853.03125 Z M251.476562,835.875 C251.476562,837.562508 251.007817,838.74609 250.070312,839.425781 C249.132808,840.105472 247.375013,840.445312 244.796875,840.445312 C242.218737,840.445312 240.460942,840.105472 239.523438,839.425781 C238.585933,838.74609 238.117188,837.562508 238.117188,835.875 L238.117188,826.734375 C238.117188,825.046867 238.585933,823.863285 239.523438,823.183594 C240.460942,822.503903 242.218737,822.164062 244.796875,822.164062 C247.375013,822.164062 249.132808,822.503903 250.070312,823.183594 C251.007817,823.863285 251.476562,825.046867 251.476562,826.734375 L251.476562,835.875 Z M361.585938,853.03125 C362.851569,853.546878 363.789059,854.121091 364.398438,854.753906 C365.007816,855.386722 365.3125,856.124996 365.3125,856.96875 C365.3125,857.671879 365.101565,858.492183 364.679688,859.429688 L339.15625,915.1875 C338.453121,916.734383 337.468756,917.847653 336.203125,918.527344 C334.937494,919.207035 333.156261,919.546875 330.859375,919.546875 C328.562489,919.546875 326.781256,919.207035 325.515625,918.527344 C324.249994,917.847653 323.265629,916.734383 322.5625,915.1875 L297.039062,859.429688 C296.617185,858.539058 296.40625,857.718754 296.40625,856.96875 C296.40625,856.124996 296.710934,855.386722 297.320312,854.753906 C297.929691,854.121091 298.867181,853.546878 300.132812,853.03125 C301.398444,852.468747 302.476558,852.1875 303.367188,852.1875 C304.164066,852.1875 304.843747,852.421873 305.40625,852.890625 C305.968753,853.359377 306.484373,854.10937 306.953125,855.140625 L330.859375,907.945312 L354.765625,855.140625 C355.234377,854.10937 355.749997,853.359377 356.3125,852.890625 C356.875003,852.421873 357.554684,852.1875 358.351562,852.1875 C359.242192,852.1875 360.320306,852.468747 361.585938,853.03125 Z M417.835938,851.484375 C424.632846,851.484375 430.421851,852.855455 435.203125,855.597656 C439.984399,858.339857 443.652331,862.124976 446.207031,866.953125 C448.761732,871.781274 450.226561,877.382781 450.601562,883.757812 C450.695313,885.304695 450.37891,886.417965 449.652344,887.097656 C448.925778,887.777347 447.765633,888.117188 446.171875,888.117188 L395.265625,888.117188 C395.593752,895.101597 397.562482,900.386701 401.171875,903.972656 C404.781268,907.558612 409.867155,909.351562 416.429688,909.351562 C421.117211,909.351562 425.699196,908.812505 430.175781,907.734375 C434.652366,906.656245 438.507796,905.179697 441.742188,903.304688 C442.539066,902.88281 443.265622,902.671875 443.921875,902.671875 C444.812504,902.671875 445.62109,903.011715 446.347656,903.691406 C447.074222,904.371097 447.648435,905.343744 448.070312,906.609375 C448.398439,907.453129 448.5625,908.296871 448.5625,909.140625 C448.5625,911.015634 447.53126,912.445308 445.46875,913.429688 C441.671856,915.257822 437.195338,916.734369 432.039062,917.859375 C426.882787,918.984381 421.679714,919.546875 416.429688,919.546875 C409.632779,919.546875 403.843774,918.187514 399.0625,915.46875 C394.281226,912.749986 390.64845,908.835963 388.164062,903.726562 C385.679675,898.617162 384.4375,892.54691 384.4375,885.515625 C384.4375,878.812466 385.855455,872.882838 388.691406,867.726562 C391.527358,862.570287 395.476537,858.574233 400.539062,855.738281 C405.601588,852.90233 411.367155,851.484375 417.835938,851.484375 Z M417.835938,861.679688 C412.023408,861.679688 407.218769,863.144517 403.421875,866.074219 C399.624981,869.003921 397.140631,873.070286 395.96875,878.273438 L439.210938,878.273438 C438.226558,872.929661 435.941424,868.828139 432.355469,865.96875 C428.769513,863.109361 423.929718,861.679688 417.835938,861.679688 Z" id="Hive"></path>
        </g>
    </g>
</svg>